<svg width="40" height="30" viewBox="0 0 40 30" fill="none" xmlns="http://www.w3.org/2000/svg">
<path d="M33.3188 2.48684C30.8102 1.33579 28.1201 0.487746 25.3075 0.00203748C25.2563 -0.00733654 25.2051 0.0160897 25.1787 0.0629432C24.8327 0.678276 24.4495 1.48103 24.1812 2.11199C21.156 1.65908 18.1463 1.65908 15.1831 2.11199C14.9147 1.467 14.5176 0.678276 14.1701 0.0629432C14.1437 0.0176529 14.0925 -0.00577328 14.0413 0.00203748C11.2302 0.486194 8.54012 1.33424 6.02998 2.48684C6.00825 2.4962 5.98962 2.51184 5.97726 2.53213C0.874734 10.1552 -0.523061 17.5909 0.16265 24.9344C0.165753 24.9703 0.18592 25.0047 0.213846 25.0265C3.58035 27.4988 6.84138 28.9997 10.0418 29.9945C10.0931 30.0102 10.1473 29.9914 10.1799 29.9492C10.937 28.9154 11.6119 27.8253 12.1905 26.6789C12.2246 26.6117 12.1921 26.5321 12.1223 26.5055C11.0518 26.0995 10.0325 25.6044 9.05206 25.0422C8.97451 24.9969 8.9683 24.8859 9.03964 24.8328C9.24597 24.6782 9.45236 24.5174 9.64937 24.3549C9.68501 24.3253 9.73468 24.319 9.77659 24.3377C16.2179 27.2786 23.1914 27.2786 29.5567 24.3377C29.5986 24.3175 29.6483 24.3237 29.6854 24.3534C29.8825 24.5158 30.0889 24.6782 30.2967 24.8328C30.3681 24.8859 30.3634 24.9969 30.2859 25.0422C29.3054 25.6153 28.2861 26.0995 27.2141 26.504C27.1443 26.5305 27.1133 26.6117 27.1474 26.6789C27.7385 27.8237 28.4133 28.9138 29.1564 29.9477C29.1875 29.9914 29.2433 30.0102 29.2945 29.9945C32.5105 28.9997 35.7715 27.4988 39.138 25.0265C39.1675 25.0047 39.1861 24.9719 39.1892 24.9359C40.0099 16.446 37.8147 9.07133 33.37 2.53368C33.3591 2.51184 33.3405 2.4962 33.3188 2.48684ZM13.1524 20.463C11.2131 20.463 9.61522 18.6826 9.61522 16.496C9.61522 14.3095 11.1821 12.5291 13.1524 12.5291C15.1381 12.5291 16.7206 14.3252 16.6895 16.496C16.6895 18.6826 15.1226 20.463 13.1524 20.463ZM26.2305 20.463C24.2913 20.463 22.6934 18.6826 22.6934 16.496C22.6934 14.3095 24.2603 12.5291 26.2305 12.5291C28.2163 12.5291 29.7987 14.3252 29.7677 16.496C29.7677 18.6826 28.2163 20.463 26.2305 20.463Z" fill="#5865F2"/>
</svg>
