<svg width="33" height="32" viewBox="0 0 33 32" fill="none" xmlns="http://www.w3.org/2000/svg">
<path d="M25.8924 16.6024C25.8924 15.9433 25.8286 15.2629 25.7223 14.625H16.5156V18.3885H21.7887C21.5761 19.6004 20.8745 20.6636 19.8326 21.344L22.9794 23.7892C24.8293 22.0669 25.8924 19.5579 25.8924 16.6024Z" fill="white"/>
<path d="M16.5184 26.128C19.155 26.128 21.3663 25.2562 22.9823 23.7679L19.8354 21.3439C18.9636 21.9393 17.8367 22.2795 16.5184 22.2795C13.9669 22.2795 11.8194 20.5572 11.0327 18.2609L7.80078 20.7486C9.45926 24.0443 12.8187 26.128 16.5184 26.128Z" fill="white"/>
<path d="M11.0302 18.2397C10.6262 17.0277 10.6262 15.7094 11.0302 14.4974L7.79827 11.9885C6.4162 14.7526 6.4162 18.0058 7.79827 20.7486L11.0302 18.2397Z" fill="white"/>
<path d="M16.5184 10.4789C17.9005 10.4576 19.2613 10.9892 20.2606 11.946L23.046 9.13932C21.2813 7.48084 18.9424 6.58781 16.5184 6.60907C12.8187 6.60907 9.45926 8.69281 7.80078 11.9885L11.0327 14.4975C11.8194 12.1799 13.9669 10.4789 16.5184 10.4789Z" fill="white"/>
</svg>
